<?xml version="1.0" encoding="UTF-8"?>
<svg xmlns="http://www.w3.org/2000/svg" viewBox="0 0 512 512" width="512" height="512">
<path d="M58.42 0.08C190.14 0.08 321.86 0.08 453.58 0.08C455.26 1.31 464.11 2.19 467.01 3.11C474.42 5.45 481.63 9.32 487.74 14.22C496.69 21.39 504.17 31.49 507.93 42.23C508.99 45.26 511.04 57.2 511.92 58.42C511.92 190.14 511.92 321.86 511.92 453.58C510.68 455.31 509.82 464.09 508.89 467.01C506.55 474.41 502.68 481.64 497.78 487.74C490.58 496.69 480.52 504.15 469.76 507.93C466.72 509 454.82 511.03 453.58 511.92C321.86 511.92 190.14 511.92 58.42 511.92C56.69 510.67 47.92 509.82 44.99 508.89C37.58 506.55 30.37 502.68 24.26 497.78C15.3 490.6 7.83 480.5 4.08 469.75C3.03 466.74 0.94 454.78 0.08 453.58C0.08 321.86 0.08 190.14 0.08 58.42C0.97 57.19 3 45.27 4.07 42.24C7.84 31.49 15.3 21.4 24.26 14.22C30.37 9.32 37.58 5.43 45 3.11C47.91 2.2 56.72 1.31 58.42 0.08ZM138.91 117.95C138.74 118.34 138.58 118.72 138.41 119.11C135.7 124.54 137.21 133.32 137.22 139.34C137.22 155.16 137.17 170.98 137.2 186.8C137.28 227.79 137.11 268.78 137.17 309.77C137.19 322.86 136.98 335.97 137.21 349.05C137.3 354.51 136.26 360.81 137.44 366.12C137.44 371.57 137.44 377.03 137.44 382.48C136.48 386.24 137.57 390.65 138.91 394.17C145.66 411.88 161.78 409.64 177.45 409.67C181.24 409.68 191.58 410.78 194.51 409.27C209.32 409.27 224.13 409.27 238.93 409.28C243.76 409.28 248.6 409.28 253.43 409.28C258.42 409.28 263.4 409.28 268.39 409.28C272.44 409.28 276.5 409.28 280.55 409.28C289.59 409.28 298.63 409.28 307.67 409.27C310.25 410.63 325.87 409.67 329.88 409.67C338.63 409.67 349.2 411.27 357.68 408.88C370.94 405.14 377.38 389.64 374.56 376.87C374.56 369.08 374.56 361.28 374.56 353.49C374.56 349.59 374.56 345.7 374.56 341.8C374.56 335.1 374.55 328.4 374.55 321.69C374.55 311.88 374.55 302.06 374.55 292.24C374.55 291.93 374.55 291.61 374.55 291.3C374.55 282.42 374.55 273.53 374.55 264.65C374.55 261.69 374.55 258.73 374.55 255.77C374.55 227.56 374.55 199.34 374.55 171.13C374.55 170.82 374.55 170.51 374.55 170.2C374.55 160.54 374.55 150.87 374.54 141.21C374.54 140.74 374.54 140.27 374.54 139.81C375.58 135.71 375.47 121.23 373.1 117.75C368.53 102.11 353.36 102.39 340.16 102.39C333.15 102.39 326.14 102.38 319.12 102.39C314.12 102.4 299.64 100.51 297.35 105.21C296.41 108.13 298.64 109.64 300.77 111.3C304.68 114.35 313.74 122.87 317.93 124.02C318.06 124.14 318.19 124.27 318.33 124.39C325.78 132.16 341 123.35 346.64 132.33C349.42 136.76 348.01 153.3 348.01 159.21C348 176.67 348.01 194.12 348 211.58C348 216.73 346.92 230.98 348.19 235.04C347.21 237.79 346.19 240.25 343.54 241.85C339.24 244.44 322.11 243.06 316.32 243.06C284.37 243.03 252.42 243.04 220.46 243.06C211.74 243.06 203.01 243.07 194.28 243.06C189.58 243.05 185.41 242.41 183.29 247.35C182.49 249.68 182.89 252.58 182.91 255.06C182.92 258.62 181.93 263.65 184.38 266.61C186.74 269.47 191.01 268.82 194.28 268.82C202.54 268.8 210.8 268.82 219.06 268.82C247.74 268.81 276.44 268.84 305.1 268.81C313.36 268.8 321.62 268.81 329.88 268.81C333.47 268.81 338.15 267.97 341.58 269.26C351.45 272.97 347.87 287.95 348 296.21C348.28 314.44 348 332.68 348 350.92C348 356.65 346.86 371.2 348.2 375.85C347.39 378.82 345.73 381.44 342.86 382.83C337.37 385.5 319.9 383.92 313.04 383.92C276.57 383.92 240.1 383.95 203.63 383.92C193.36 383.92 182.52 384.92 172.3 383.87C168.31 383.45 164.7 380.36 163.99 376.4C164.74 362.78 180.78 366.68 190.54 366.65C209.9 366.59 229.18 366.6 248.52 366.64C253.83 366.65 259.1 366.63 264.42 366.65C266.44 366.67 269.45 367.18 271.2 366.26C271.66 366.26 272.13 366.26 272.6 366.26C275.66 367.89 287.47 366.65 291.54 366.66C300.26 366.67 308.99 366.7 317.72 366.63C321.04 366.61 325.26 367.25 327.6 364.31C330.03 361.28 329.09 356.42 329.09 352.79C329.09 350.41 329.64 347.07 328.67 344.97C326.25 340.08 322.1 340.9 317.25 340.9C308.37 340.9 299.48 340.89 290.6 340.9C259.43 340.92 228.26 340.94 197.08 340.9C190.99 340.9 173.33 342.35 168.74 339.73C166.53 338.46 165.51 336.41 164.29 334.31C164.92 329.87 164.02 324.23 164.03 319.59C164.04 308.06 164.02 296.52 164.03 284.99C164.05 249.3 164.03 213.61 164.04 177.91C164.04 168.25 164.04 158.59 164.04 148.92C164.03 144.52 163.43 139.72 164.1 135.36C165.74 124.82 179.42 129.24 186.32 127.81C193.35 126.36 199.77 120.6 205.14 116.07C208.09 113.57 216.25 109.8 214.64 105.21C212.24 100.48 197.93 102.4 192.88 102.39C185.86 102.39 178.85 102.38 171.84 102.39C158.86 102.4 142.96 101.99 138.91 117.95ZM184.18 160.38C184.14 160.54 184.1 160.69 184.06 160.85C182.24 163.19 182.14 180.16 183.05 183.34C183.71 185.63 186.22 187.29 188.58 186.86C191.9 186.24 199.92 178.53 202.94 176.17C214.69 167 226.43 157.82 238.19 148.66C242.33 145.44 250.89 136.91 256 136.98C261.58 137.06 270.9 146.32 275.43 149.89C285.77 158.04 296.27 166.17 306.69 174.29C311.69 178.19 317.09 183.91 322.79 186.61C325.34 187.83 328.5 185.56 329.01 182.98C329.82 178.88 330.02 164.84 328.18 161.32C328.06 161.11 327.94 160.9 327.82 160.69C326.84 156.12 322.71 153.55 319.3 150.83C312.53 145.44 305.7 140.12 298.89 134.79C289.1 127.12 279.35 119.41 269.53 111.78C265.92 108.97 261.7 104.19 256.94 103.7C250.47 103.04 243.22 111.04 238.57 114.87C225.63 125.52 211.97 135.31 198.95 145.89C194.05 149.88 185.98 153.93 184.18 160.38ZM183.31 296.45C181.89 300.48 181.91 314.78 186.37 317C189.49 318.54 194.19 317.73 197.55 317.74C206.12 317.77 214.7 317.74 223.27 317.73C246.02 317.73 268.78 317.72 291.54 317.73C299.17 317.73 306.81 317.77 314.45 317.75C317.43 317.74 320.91 318.24 323.83 317.6C330.7 316.07 329.09 307.57 329.1 302.29C329.1 300.22 329.68 297.1 328.3 295.51C326.34 291.48 322.55 291.95 318.66 291.96C311.33 291.97 304 291.96 296.68 291.96C268.16 291.94 239.63 291.95 211.11 291.96C205.84 291.96 191.06 290.66 186.89 292.32C184.96 293.09 184.11 294.67 183.31 296.45Z" fill="#0e1215" fill-rule="evenodd" stroke="#0e1215" stroke-width="0.25" stroke-linejoin="round"/>
<path d="M211.03 106.54C207.3 109.53 202.59 111.98 199.89 115.96C195.58 116.87 191.47 121.9 187.18 123.65C181.77 125.87 174.22 122.21 169.26 125.08C170.35 125.23 171.45 125.39 172.54 125.55C170.89 126.37 168.31 128.02 166.93 126.95C168.13 126.01 168.44 126.4 168.56 124.87C163.6 127.34 161.66 130.85 160.26 135.83C160.61 137.23 160.95 138.64 161.3 140.04C161.69 139.67 162.09 139.3 162.48 138.93C163.82 146.3 163.24 154.07 163.19 161.55C163.12 171.99 163.19 182.44 163.18 192.88C163.15 222.49 163.29 252.1 163.19 281.72C163.12 298.96 162.25 316.59 163.65 333.71C162.96 334.3 162.28 334.9 161.6 335.49C162.53 340.55 167.01 343.32 171.84 344.08C181.43 345.57 192.11 344.42 201.81 344.37C228.91 344.22 256.02 344.5 283.12 344.45C295.39 344.43 317.01 342.64 328.14 345.54C329.42 348.72 328.75 358.43 327.54 361.66C327.06 361.33 326.81 360.91 326.18 361.01C325.56 361.1 325.12 362.05 324.5 362.33C322.96 363.03 321.26 362.8 319.59 362.83C311.18 362.95 302.76 362.87 294.34 362.84C261.61 362.73 228.88 362.9 196.15 362.86C186.21 362.84 162.92 358.93 160.85 372.43C163.57 372.84 162.88 373.91 163.37 376.38C163.07 377.17 162.78 377.95 162.48 378.74C162.17 378.32 161.86 377.89 161.55 377.47C160.61 382.18 165.86 385.68 169.91 386.81C176.56 388.66 194.83 387.26 202.7 387.26C241.5 387.27 280.32 387.1 319.12 387.26C326.37 387.29 338.34 388.93 344.84 385.78C349.6 383.49 352.8 379.58 349.03 374.99C347.96 367.5 348.95 359 348.96 351.39C348.98 334.87 348.96 318.34 348.93 301.82C348.92 297.19 347.79 281.56 349.47 278.12C349.74 277.56 350.67 277 351.1 276.57C351.06 273.38 349.81 272.1 348.09 269.87C342.3 262.41 331.1 265.02 322.4 264.95C291.08 264.7 259.73 264.7 228.41 264.93C219.06 264.99 209.71 264.88 200.36 264.92C196.64 264.93 192.84 265.16 189.14 264.85C188.05 264.76 185.62 264.51 186.26 263.48C185.64 263.48 185.01 263.48 184.39 263.48C182.68 259.75 182.83 252.22 183.78 248.28C184.32 247.82 184.86 247.35 185.4 246.88C186.19 247.46 192.9 246.62 194.75 246.61C204.14 246.56 213.7 247.32 223.04 246.44C232 245.59 243.98 246.58 253.22 246.65C257.82 246.68 262.74 245.97 267.21 246.15C283.28 246.8 299.7 246.74 315.85 246.62C323.65 246.56 335.67 248.27 342.95 245.74C347 244.34 351.26 240.88 350.45 236.19C350.06 236.72 349.67 237.24 349.28 237.76C349.06 236.89 348.85 236.02 348.63 235.15C348.85 202.67 349.06 170.19 349.28 137.7C355.23 139.68 348.88 127.89 346.2 126.28C340.01 122.57 332.59 125.37 325.9 123.91C320.67 122.77 317.02 117 312.11 115.96C311.29 114.77 311.16 114.37 309.77 114.09C308.47 110.88 307.57 111.95 305.33 111.99C305.66 111.52 305.98 111.05 306.31 110.58C304.4 109.12 302.49 107.65 300.58 106.18C301.75 105.49 304.51 105.96 305.99 105.93C311.14 105.83 316.31 105.91 321.46 106.03C331.92 106.26 352.49 103.54 361.33 108.35C365.46 110.59 367.37 114.5 369.62 118.32C370.25 118 370.87 117.68 371.49 117.36C372.49 118.69 370.69 120.78 373.15 120.38C375.14 124.92 372.02 136.92 374.54 139.81C374.54 140.27 374.54 140.74 374.54 141.21C373.29 142.66 373.91 145.98 373.91 147.99C373.9 153.29 373.89 158.59 373.9 163.89C373.9 165.81 373.33 168.81 374.55 170.2C374.55 170.51 374.55 170.82 374.55 171.13C373.01 172.9 373.91 185.06 373.9 188.2C373.84 204.41 373.9 220.62 373.89 236.83C373.89 240.14 372.97 253.99 374.55 255.77C374.55 258.73 374.55 261.69 374.55 264.65C373.38 265.97 373.9 268.65 373.9 270.49C373.9 275.48 373.88 280.47 373.88 285.46C373.87 287.3 373.37 289.99 374.55 291.3C374.55 291.61 374.55 291.93 374.55 292.24C373.27 293.66 373.89 297.01 373.89 299.02C373.88 304.47 373.87 309.93 373.88 315.38C373.88 317.31 373.31 320.33 374.55 321.69C374.55 328.4 374.56 335.1 374.56 341.8C372.8 343.73 373.88 350.04 373.86 352.79C374.09 353.02 374.32 353.26 374.56 353.49C374.56 361.28 374.56 369.08 374.56 376.87C373.31 378.17 373.38 389.58 372.43 392.77C372.18 392.51 371.67 391.17 371.48 391.09C371.31 391.01 370.51 391.74 370.44 391.85C369.74 392.85 366.09 399.32 365.88 400.25C362.65 402.29 358.63 405.03 354.43 405.84C350.28 406.64 345.32 405.93 341.1 405.91C331.44 405.88 321.77 405.89 312.11 405.92C275.02 406.02 237.92 405.84 200.83 405.91C191.01 405.92 181.19 405.86 171.37 405.87C166.11 405.88 160.31 406.64 155.24 405.33C150.91 404.2 148.52 400.97 144.95 398.61C143.98 396.59 143.01 394.56 142.05 392.53C141.14 392.38 140.24 392.22 139.34 392.07C139.34 391.17 137.98 382.84 137.44 382.48C137.44 377.03 137.44 371.57 137.44 366.12C138.94 364.53 138.12 353.81 138.13 350.92C138.18 336.58 138.14 322.24 138.1 307.9C138 263.01 138.17 218.13 138.1 173.24C138.08 160.3 138.11 147.37 138.11 134.43C138.11 131.72 139.04 120.68 138.41 119.11C138.58 118.72 138.74 118.34 138.91 117.95C141.08 117.09 141.78 115 142.38 117.97C143.97 114.51 146.95 110.05 150.93 108.16C159.64 104.02 182.09 106 192.41 105.96C197.09 105.94 201.75 105.9 206.44 105.94C207.73 105.96 210.27 105.52 211.03 106.54ZM327.82 160.69C327.94 160.9 328.06 161.11 328.18 161.32C327.48 162.92 328.5 165.73 328.5 167.63C328.52 173.22 329.11 178.98 327.54 184.29C326.06 183.88 324.58 183.47 323.1 183.06C321.65 180.34 311.05 171.67 307.9 171.13C307.07 169.07 300.16 163.57 298.08 163.19C297.19 161.21 294.42 159.68 292.47 158.98C289.17 154.17 281.53 149.9 276.86 146.27C275.01 144.83 273.23 142.58 270.96 142.14C270.09 140.1 267.78 139.24 266.1 137.86C261.56 134.14 256.84 131.27 250.81 134.07C248.31 135.23 246.71 137.58 244.64 139.15C236.32 145.49 228.05 152.22 219.71 158.43C215.97 161.21 205.82 166.95 204.1 171.13C201.2 171.66 192.9 178.5 190.48 180.95C189.41 182.03 186.77 183.67 187.03 184.93C187.81 185.08 188.59 185.24 189.37 185.4C186.32 186.01 185.82 183.88 184.46 184.46C182.22 176.77 184.29 168.66 184.06 160.85C184.1 160.69 184.14 160.54 184.18 160.38C184.9 160.76 185.61 161.13 186.33 161.51C192.62 155.25 199.21 150.15 206.24 144.75C216.5 136.86 226.43 128.41 236.73 120.54C240.63 117.55 244.73 114.93 248.38 111.6C250.27 109.88 252.76 107.16 255.53 107.18C260.31 107.2 271.45 117.58 275.43 120.85C286.23 129.72 297.43 138.21 308.41 146.83C313.76 151.03 319.36 154.63 324.04 159.68C325.3 160.02 326.56 160.36 327.82 160.69ZM318.33 124.39C318.19 124.27 318.06 124.14 317.93 124.02C318.17 123.67 318.42 123.32 318.66 122.97C318.03 122.19 317.41 121.41 316.79 120.64C318.27 121.34 319.75 122.04 321.23 122.74C320.26 123.29 319.29 123.84 318.33 124.39ZM342.03 125.35C343.05 125.88 344.06 126.42 345.07 126.95C343.05 126.42 341.02 125.88 339 125.35C340.01 125.35 341.02 125.35 342.03 125.35ZM327.89 296.49C328.6 298.23 329.07 310.71 327.65 312.01C327.29 312.35 326.53 312.11 326.03 312.11C325.84 312.56 326.14 313.08 326.03 313.21C325.25 314.15 321.61 313.9 320.53 313.88C315.54 313.79 310.55 313.84 305.56 313.85C284.37 313.88 263.17 313.91 241.97 313.84C227.63 313.79 213.29 313.85 198.96 313.84C196.47 313.84 185.33 314.85 185.86 311.98C185.48 312.05 184.67 312.31 184.39 312C183.33 310.8 183.39 299.15 183.8 297.38C185.48 297.01 186.9 295.81 188.68 295.52C197.19 294.1 211.7 295.46 220.93 295.43C241.66 295.37 262.42 295.59 283.12 295.44C292.76 295.37 302.45 295.39 312.11 295.42C317.32 295.44 323.16 294.87 327.89 296.49ZM272.6 366.26C272.13 366.26 271.66 366.26 271.2 366.26C268.24 366.14 265.27 366.01 262.31 365.88C267.14 365.88 271.98 365.88 276.81 365.88C275.4 366.01 274 366.14 272.6 366.26ZM307.67 409.27C298.63 409.28 289.59 409.28 280.55 409.28C276.5 409.28 272.44 409.28 268.39 409.28C263.4 409.28 258.42 409.28 253.43 409.28C248.6 409.28 243.76 409.28 238.93 409.28C224.13 409.27 209.32 409.27 194.51 409.27C193.58 409.15 192.64 409.02 191.71 408.9C234.88 408.9 278.05 408.9 321.23 408.9C316.71 409.02 312.19 409.15 307.67 409.27Z" fill="#65e0bb" fill-rule="evenodd" stroke="#65e0bb" stroke-width="0.25" stroke-linejoin="round"/>
<path d="M214.64 105.21C216.25 109.8 208.09 113.57 205.14 116.07C199.77 120.6 193.35 126.36 186.32 127.81C179.42 129.24 165.74 124.82 164.1 135.36C163.43 139.72 164.03 144.52 164.04 148.92C164.04 158.59 164.04 168.25 164.04 177.91C164.03 213.61 164.05 249.3 164.03 284.99C164.02 296.52 164.04 308.06 164.03 319.59C164.02 324.23 164.92 329.87 164.29 334.31C164.08 334.11 163.86 333.91 163.65 333.71C162.25 316.59 163.12 298.96 163.19 281.72C163.29 252.1 163.15 222.49 163.18 192.88C163.19 182.44 163.12 171.99 163.19 161.55C163.24 154.07 163.82 146.3 162.48 138.93C162.09 139.3 161.69 139.67 161.3 140.04C160.95 138.64 160.61 137.23 160.26 135.83C161.66 130.85 163.6 127.34 168.56 124.87C168.44 126.4 168.13 126.01 166.93 126.95C168.31 128.02 170.89 126.37 172.54 125.55C171.45 125.39 170.35 125.23 169.26 125.08C174.22 122.21 181.77 125.87 187.18 123.65C191.47 121.9 195.58 116.87 199.89 115.96C202.59 111.98 207.3 109.53 211.03 106.54C211.83 106.45 212.64 106.35 213.45 106.26C213.63 105.98 213.82 105.71 214 105.44C214.21 105.36 214.42 105.28 214.64 105.21ZM297.35 105.21C297.75 105.57 298.15 105.94 298.55 106.3C299.23 106.26 299.9 106.22 300.58 106.18C302.49 107.65 304.4 109.12 306.31 110.58C305.98 111.05 305.66 111.52 305.33 111.99C307.57 111.95 308.47 110.88 309.77 114.09C311.16 114.37 311.29 114.77 312.11 115.96C317.02 117 320.67 122.77 325.9 123.91C332.59 125.37 340.01 122.57 346.2 126.28C348.88 127.89 355.23 139.68 349.28 137.7C349.06 170.19 348.85 202.67 348.63 235.15C348.48 235.12 348.34 235.08 348.19 235.04C346.92 230.98 348 216.73 348 211.58C348.01 194.12 348 176.67 348.01 159.21C348.01 153.3 349.42 136.76 346.64 132.33C341 123.35 325.78 132.16 318.33 124.39C319.29 123.84 320.26 123.29 321.23 122.74C319.75 122.04 318.27 121.34 316.79 120.64C317.41 121.41 318.03 122.19 318.66 122.97C318.42 123.32 318.17 123.67 317.93 124.02C313.74 122.87 304.68 114.35 300.77 111.3C298.64 109.64 296.41 108.13 297.35 105.21ZM373.1 117.75C375.47 121.23 375.58 135.71 374.54 139.81C372.02 136.92 375.14 124.92 373.15 120.38C373 119.61 372.86 118.84 372.71 118.06C372.84 117.96 372.97 117.86 373.1 117.75ZM138.41 119.11C139.04 120.68 138.11 131.72 138.11 134.43C138.11 147.37 138.08 160.3 138.1 173.24C138.17 218.13 138 263.01 138.1 307.9C138.14 322.24 138.18 336.58 138.13 350.92C138.12 353.81 138.94 364.53 137.44 366.12C136.26 360.81 137.3 354.51 137.21 349.05C136.98 335.97 137.19 322.86 137.17 309.77C137.11 268.78 137.28 227.79 137.2 186.8C137.17 170.98 137.22 155.16 137.22 139.34C137.21 133.32 135.7 124.54 138.41 119.11ZM342.03 125.35C341.02 125.35 340.01 125.35 339 125.35C341.02 125.88 343.05 126.42 345.07 126.95C344.06 126.42 343.05 125.88 342.03 125.35ZM328.18 161.32C330.02 164.84 329.82 178.88 329.01 182.98C328.5 185.56 325.34 187.83 322.79 186.61C317.09 183.91 311.69 178.19 306.69 174.29C296.27 166.17 285.77 158.04 275.43 149.89C270.9 146.32 261.58 137.06 256 136.98C250.89 136.91 242.33 145.44 238.19 148.66C226.43 157.82 214.69 167 202.94 176.17C199.92 178.53 191.9 186.24 188.58 186.86C186.22 187.29 183.71 185.63 183.05 183.34C182.14 180.16 182.24 163.19 184.06 160.85C184.29 168.66 182.22 176.77 184.46 184.46C185.82 183.88 186.32 186.01 189.37 185.4C188.59 185.24 187.81 185.08 187.03 184.93C186.77 183.67 189.41 182.03 190.48 180.95C192.9 178.5 201.2 171.66 204.1 171.13C205.82 166.95 215.97 161.21 219.71 158.43C228.05 152.22 236.32 145.49 244.64 139.15C246.71 137.58 248.31 135.23 250.81 134.07C256.84 131.27 261.56 134.14 266.1 137.86C267.78 139.24 270.09 140.1 270.96 142.14C273.23 142.58 275.01 144.83 276.86 146.27C281.53 149.9 289.17 154.17 292.47 158.98C294.42 159.68 297.19 161.21 298.08 163.19C300.16 163.57 307.07 169.07 307.9 171.13C311.05 171.67 321.65 180.34 323.1 183.06C324.58 183.47 326.06 183.88 327.54 184.29C329.11 178.98 328.52 173.22 328.5 167.63C328.5 165.73 327.48 162.92 328.18 161.32ZM374.54 141.21C374.55 150.87 374.55 160.54 374.55 170.2C373.33 168.81 373.9 165.81 373.9 163.89C373.89 158.59 373.9 153.29 373.91 147.99C373.91 145.98 373.29 142.66 374.54 141.21ZM374.55 171.13C374.55 199.34 374.55 227.56 374.55 255.77C372.97 253.99 373.89 240.14 373.89 236.83C373.9 220.62 373.84 204.41 373.9 188.2C373.91 185.06 373.01 172.9 374.55 171.13ZM183.29 247.35C183.45 247.66 183.61 247.97 183.78 248.28C182.83 252.22 182.68 259.75 184.39 263.48C185.01 263.48 185.64 263.48 186.26 263.48C185.62 264.51 188.05 264.76 189.14 264.85C192.84 265.16 196.64 264.93 200.36 264.92C209.71 264.88 219.06 264.99 228.41 264.93C259.73 264.7 291.08 264.7 322.4 264.95C331.1 265.02 342.3 262.41 348.09 269.87C349.81 272.1 351.06 273.38 351.1 276.57C350.67 277 349.74 277.56 349.47 278.12C347.79 281.56 348.92 297.19 348.93 301.82C348.96 318.34 348.98 334.87 348.96 351.39C348.95 359 347.96 367.5 349.03 374.99C348.93 375.23 348.84 375.46 348.75 375.7C348.56 375.75 348.38 375.8 348.2 375.85C346.86 371.2 348 356.65 348 350.92C348 332.68 348.28 314.44 348 296.21C347.87 287.95 351.45 272.97 341.58 269.26C338.15 267.97 333.47 268.81 329.88 268.81C321.62 268.81 313.36 268.8 305.1 268.81C276.44 268.84 247.74 268.81 219.06 268.82C210.8 268.82 202.54 268.8 194.28 268.82C191.01 268.82 186.74 269.47 184.38 266.61C181.93 263.65 182.92 258.62 182.91 255.06C182.89 252.58 182.49 249.68 183.29 247.35ZM374.55 264.65C374.55 273.53 374.55 282.42 374.55 291.3C373.37 289.99 373.87 287.3 373.88 285.46C373.88 280.47 373.9 275.48 373.9 270.49C373.9 268.65 373.38 265.97 374.55 264.65ZM374.55 292.24C374.55 302.06 374.55 311.88 374.55 321.69C373.31 320.33 373.88 317.31 373.88 315.38C373.87 309.93 373.88 304.47 373.89 299.02C373.89 297.01 373.27 293.66 374.55 292.24ZM328.3 295.51C329.68 297.1 329.1 300.22 329.1 302.29C329.09 307.57 330.7 316.07 323.83 317.6C320.91 318.24 317.43 317.74 314.45 317.75C306.81 317.77 299.17 317.73 291.54 317.73C268.78 317.72 246.02 317.73 223.27 317.73C214.7 317.74 206.12 317.77 197.55 317.74C194.19 317.73 189.49 318.54 186.37 317C181.91 314.78 181.89 300.48 183.31 296.45C183.47 296.76 183.63 297.07 183.8 297.38C183.39 299.15 183.33 310.8 184.39 312C184.67 312.31 185.48 312.05 185.86 311.98C185.33 314.85 196.47 313.84 198.96 313.84C213.29 313.85 227.63 313.79 241.97 313.84C263.17 313.91 284.37 313.88 305.56 313.85C310.55 313.84 315.54 313.79 320.53 313.88C321.61 313.9 325.25 314.15 326.03 313.21C326.14 313.08 325.84 312.56 326.03 312.11C326.53 312.11 327.29 312.35 327.65 312.01C329.07 310.71 328.6 298.23 327.89 296.49C328.03 296.17 328.16 295.84 328.3 295.51ZM374.56 341.8C374.56 345.7 374.56 349.59 374.56 353.49C374.32 353.26 374.09 353.02 373.86 352.79C373.88 350.04 372.8 343.73 374.56 341.8ZM328.67 344.97C329.64 347.07 329.09 350.41 329.09 352.79C329.09 356.42 330.03 361.28 327.6 364.31C325.26 367.25 321.04 366.61 317.72 366.63C308.99 366.7 300.26 366.67 291.54 366.66C287.47 366.65 275.66 367.89 272.6 366.26C274 366.14 275.4 366.01 276.81 365.88C271.98 365.88 267.14 365.88 262.31 365.88C265.27 366.01 268.24 366.14 271.2 366.26C269.45 367.18 266.44 366.67 264.42 366.65C259.1 366.63 253.83 366.65 248.52 366.64C229.18 366.6 209.9 366.59 190.54 366.65C180.78 366.68 164.74 362.78 163.99 376.4C163.78 376.4 163.58 376.39 163.37 376.38C162.88 373.91 163.57 372.84 160.85 372.43C162.92 358.93 186.21 362.84 196.15 362.86C228.88 362.9 261.61 362.73 294.34 362.84C302.76 362.87 311.18 362.95 319.59 362.83C321.26 362.8 322.96 363.03 324.5 362.33C325.12 362.05 325.56 361.1 326.18 361.01C326.81 360.91 327.06 361.33 327.54 361.66C328.75 358.43 329.42 348.72 328.14 345.54C328.32 345.35 328.49 345.16 328.67 344.97ZM374.56 376.87C377.38 389.64 370.94 405.14 357.68 408.88C349.2 411.27 338.63 409.67 329.88 409.67C325.87 409.67 310.25 410.63 307.67 409.27C312.19 409.15 316.71 409.02 321.23 408.9C278.05 408.9 234.88 408.9 191.71 408.9C192.64 409.02 193.58 409.15 194.51 409.27C191.58 410.78 181.24 409.68 177.45 409.67C161.78 409.64 145.66 411.88 138.91 394.17C137.57 390.65 136.48 386.24 137.44 382.48C137.98 382.84 139.34 391.17 139.34 392.07C140.24 392.22 141.14 392.38 142.05 392.53C143.01 394.56 143.98 396.59 144.95 398.61C148.52 400.97 150.91 404.2 155.24 405.33C160.31 406.64 166.11 405.88 171.37 405.87C181.19 405.86 191.01 405.92 200.83 405.91C237.92 405.84 275.02 406.02 312.11 405.92C321.77 405.89 331.44 405.88 341.1 405.91C345.32 405.93 350.28 406.64 354.43 405.84C358.63 405.03 362.65 402.29 365.88 400.25C366.09 399.32 369.74 392.85 370.44 391.85C370.51 391.74 371.31 391.01 371.48 391.09C371.67 391.17 372.18 392.51 372.43 392.77C373.38 389.58 373.31 378.17 374.56 376.87ZM238.93 409.28C243.76 409.28 248.6 409.28 253.43 409.28C248.6 409.28 243.76 409.28 238.93 409.28ZM268.39 409.28C272.44 409.28 276.5 409.28 280.55 409.28C276.5 409.28 272.44 409.28 268.39 409.28Z" fill="#4da48c" fill-rule="evenodd" stroke="#4da48c" stroke-width="0.25" stroke-linejoin="round"/>
<path d="M214.64 105.21C214.42 105.28 214.21 105.36 214 105.44C213.82 105.71 213.63 105.98 213.45 106.26C212.64 106.35 211.83 106.45 211.03 106.54C210.27 105.52 207.73 105.96 206.44 105.94C201.75 105.9 197.09 105.94 192.41 105.96C182.09 106 159.64 104.02 150.93 108.16C146.95 110.05 143.97 114.51 142.38 117.97C141.78 115 141.08 117.09 138.91 117.95C142.96 101.99 158.86 102.4 171.84 102.39C178.85 102.38 185.86 102.39 192.88 102.39C197.93 102.4 212.24 100.48 214.64 105.21ZM373.1 117.75C372.97 117.86 372.84 117.96 372.71 118.06C372.86 118.84 373 119.61 373.15 120.38C370.69 120.78 372.49 118.69 371.49 117.36C370.87 117.68 370.25 118 369.62 118.32C367.37 114.5 365.46 110.59 361.33 108.35C352.49 103.54 331.92 106.26 321.46 106.03C316.31 105.91 311.14 105.83 305.99 105.93C304.51 105.96 301.75 105.49 300.58 106.18C299.9 106.22 299.23 106.26 298.55 106.3C298.15 105.94 297.75 105.57 297.35 105.21C299.64 100.51 314.12 102.4 319.12 102.39C326.14 102.38 333.15 102.39 340.16 102.39C353.36 102.39 368.53 102.11 373.1 117.75ZM327.82 160.69C326.56 160.36 325.3 160.02 324.04 159.68C319.36 154.63 313.76 151.03 308.41 146.83C297.43 138.21 286.23 129.72 275.43 120.85C271.45 117.58 260.31 107.2 255.53 107.18C252.76 107.16 250.27 109.88 248.38 111.6C244.73 114.93 240.63 117.55 236.73 120.54C226.43 128.41 216.5 136.86 206.24 144.75C199.21 150.15 192.62 155.25 186.33 161.51C185.61 161.13 184.9 160.76 184.18 160.38C185.98 153.93 194.05 149.88 198.95 145.89C211.97 135.31 225.63 125.52 238.57 114.87C243.22 111.04 250.47 103.04 256.94 103.7C261.7 104.19 265.92 108.97 269.53 111.78C279.35 119.41 289.1 127.12 298.89 134.79C305.7 140.12 312.53 145.44 319.3 150.83C322.71 153.55 326.84 156.12 327.82 160.69ZM348.19 235.04C348.34 235.08 348.48 235.12 348.63 235.15C348.85 236.02 349.06 236.89 349.28 237.76C349.67 237.24 350.06 236.72 350.45 236.19C351.26 240.88 347 244.34 342.95 245.74C335.67 248.27 323.65 246.56 315.85 246.62C299.7 246.74 283.28 246.8 267.21 246.15C262.74 245.97 257.82 246.68 253.22 246.65C243.98 246.58 232 245.59 223.04 246.44C213.7 247.32 204.14 246.56 194.75 246.61C192.9 246.62 186.19 247.46 185.4 246.88C184.86 247.35 184.32 247.82 183.78 248.28C183.61 247.97 183.45 247.66 183.29 247.35C185.41 242.41 189.58 243.05 194.28 243.06C203.01 243.07 211.74 243.06 220.46 243.06C252.42 243.04 284.37 243.03 316.32 243.06C322.11 243.06 339.24 244.44 343.54 241.85C346.19 240.25 347.21 237.79 348.19 235.04ZM328.3 295.51C328.16 295.84 328.03 296.17 327.89 296.49C323.16 294.87 317.32 295.44 312.11 295.42C302.45 295.39 292.76 295.37 283.12 295.44C262.42 295.59 241.66 295.37 220.93 295.43C211.7 295.46 197.19 294.1 188.68 295.52C186.9 295.81 185.48 297.01 183.8 297.38C183.63 297.07 183.47 296.76 183.31 296.45C184.11 294.67 184.96 293.09 186.89 292.32C191.06 290.66 205.84 291.96 211.11 291.96C239.63 291.95 268.16 291.94 296.68 291.96C304 291.96 311.33 291.97 318.66 291.96C322.55 291.95 326.34 291.48 328.3 295.51ZM163.65 333.71C163.86 333.91 164.08 334.11 164.29 334.31C165.51 336.41 166.53 338.46 168.74 339.73C173.33 342.35 190.99 340.9 197.08 340.9C228.26 340.94 259.43 340.92 290.6 340.9C299.48 340.89 308.37 340.9 317.25 340.9C322.1 340.9 326.25 340.08 328.67 344.97C328.49 345.16 328.32 345.35 328.14 345.54C317.01 342.64 295.39 344.43 283.12 344.45C256.02 344.5 228.91 344.22 201.81 344.37C192.11 344.42 181.43 345.57 171.84 344.08C167.01 343.32 162.53 340.55 161.6 335.49C162.28 334.9 162.96 334.3 163.65 333.71ZM349.03 374.99C352.8 379.58 349.6 383.49 344.84 385.78C338.34 388.93 326.37 387.29 319.12 387.26C280.32 387.1 241.5 387.27 202.7 387.26C194.83 387.26 176.56 388.66 169.91 386.81C165.86 385.68 160.61 382.18 161.55 377.47C161.86 377.89 162.17 378.32 162.48 378.74C162.78 377.95 163.07 377.17 163.37 376.38C163.58 376.39 163.78 376.4 163.99 376.4C164.7 380.36 168.31 383.45 172.3 383.87C182.52 384.92 193.36 383.92 203.63 383.92C240.1 383.95 276.57 383.92 313.04 383.92C319.9 383.92 337.37 385.5 342.86 382.83C345.73 381.44 347.39 378.82 348.2 375.85C348.38 375.8 348.56 375.75 348.75 375.7C348.84 375.46 348.93 375.23 349.03 374.99Z" fill="#a1ecd7" fill-rule="evenodd" stroke="#a1ecd7" stroke-width="0.25" stroke-linejoin="round"/>
</svg>